<svg width="50" height="50" viewBox="0 0 50 50" fill="none" xmlns="http://www.w3.org/2000/svg">
<path d="M47.3959 44.6617C47.3959 46.1676 46.1701 47.3959 44.663 47.3959H4.55821C3.05106 47.3959 1.824 46.1676 1.824 44.6617V4.55705C1.824 3.0499 3.05106 1.82276 4.55821 1.82276H44.663C46.1701 1.82276 47.3959 3.0499 47.3959 4.55705V44.6617ZM44.663 0H4.55821C2.04588 0 0 2.04345 0 4.55705V44.6617C0 47.1728 2.04461 49.22 4.55821 49.22H44.663C47.1753 49.22 49.2199 47.1741 49.2199 44.6617V4.55705C49.2199 2.04472 47.1766 0 44.663 0Z" fill="#004877"/>
<path d="M17.8536 28.789L10.0277 36.6137V30.9882H6.38086V41.0147C6.38086 42.0199 7.19843 42.8375 8.20362 42.8375H18.2289V39.192H12.6034L20.4294 31.3647C21.143 30.6523 21.143 29.4988 20.4294 28.7877C19.7196 28.0779 18.5635 28.0779 17.8536 28.789Z" fill="#004877"/>
<path d="M39.194 36.6139L31.3681 28.7892C30.657 28.0768 29.5009 28.0768 28.7911 28.7892C28.0774 29.5015 28.0774 30.655 28.7911 31.3661L36.6171 39.1934H30.9916V42.8389H41.0169C42.0233 42.8389 42.8396 42.0201 42.8396 41.0162V30.9896H39.194V36.6139Z" fill="#004877"/>
<path d="M12.6053 10.0267H18.2308V6.38123H8.20557C7.19912 6.38123 6.38281 7.19753 6.38281 8.20398V18.2305H10.0296V12.6051L17.8557 20.431C18.2093 20.7872 18.677 20.9647 19.1435 20.9647C19.6112 20.9647 20.079 20.7872 20.4339 20.431C21.1475 19.7174 21.1475 18.5651 20.4339 17.8527L12.6053 10.0267Z" fill="#004877"/>
<path d="M41.0169 6.38123H30.9916V10.0267H36.6171L28.7911 17.8514C28.0774 18.5651 28.0774 19.7174 28.7911 20.4298C29.1447 20.786 29.6125 20.9634 30.079 20.9634C30.5467 20.9634 31.0132 20.786 31.3694 20.4298L39.1954 12.6037V18.2291H42.8409V8.20275C42.8409 7.19629 42.0233 6.38123 41.0169 6.38123Z" fill="#004877"/>
</svg>
