<svg width="49" height="49" viewBox="0 0 49 49" fill="none" xmlns="http://www.w3.org/2000/svg">
<path d="M39.0165 45.3695H31.7577H29.0356H21.7754C21.0636 45.3695 19.7866 45.0691 19.1493 44.7486L18.7668 44.558C17.4051 43.8779 15.3874 43.7933 13.9702 44.3599L12.8052 44.8256C12.0935 45.1108 10.7444 45.3708 9.97842 45.3708H3.62695V24.4999H12.7005V40.8316C12.7005 41.3339 13.1057 41.7403 13.6092 41.7403C14.1102 41.7403 14.5166 41.3351 14.5166 40.8316V26.0547C14.928 26.22 15.386 26.3145 15.8782 26.3145C17.3509 26.3145 18.9587 25.2471 19.7878 24.1934L27.9868 7.89327C28.561 6.79793 28.9977 5.07278 29.033 3.79698C29.1011 3.75155 29.3423 3.628 29.943 3.628C30.7948 3.628 31.7577 3.62798 31.7577 6.34992C31.7577 8.44848 30.7026 14.7088 30.2962 16.9449C30.1132 17.9431 30.3695 18.9463 30.9942 19.6946C31.6176 20.4416 32.5565 20.8707 33.5736 20.8707H37.203H38.1104H43.5546C44.5567 20.8707 45.3694 21.6846 45.3694 22.6853C45.3694 23.686 44.5567 24.4999 43.5546 24.4999H41.7399C40.7392 24.4999 39.9251 25.3151 39.9251 26.3145C39.9251 27.3165 40.7405 28.1293 41.7399 28.1293H43.5546C44.5567 28.1293 45.3694 28.9445 45.3694 29.9439C45.3694 30.9434 44.5567 31.7585 43.5546 31.7585H42.6473C42.5362 31.7585 42.4288 31.7725 42.3241 31.7901C42.1323 31.7687 41.9368 31.7585 41.7399 31.7585H40.8324C39.8304 31.7585 39.0165 32.5725 39.0165 33.5732C39.0165 34.5764 39.8317 35.3878 40.8324 35.3878H41.7399C42.7407 35.3878 43.5546 36.2017 43.5546 37.2024C43.5546 38.2043 42.7407 39.017 41.7399 39.017H40.8324C40.7454 39.017 40.6608 39.0309 40.5762 39.0435C40.4778 39.0271 40.3769 39.017 40.2734 39.017H39.0165V39.0751C39.0165 39.2757 37.6561 39.9874 37.6561 40.8316C37.6561 41.6784 39.0165 42.3889 39.0165 42.5908V42.6488C39.9251 42.6488 40.6066 43.2584 40.6066 44.0092C40.6066 44.7335 39.9832 45.3695 39.0165 45.3695ZM49 22.6853C49 19.682 46.5569 17.2415 43.5559 17.2415H38.1118H37.2043H33.9333C34.2236 15.6035 35.3895 8.90148 35.3895 6.35115C35.3895 0.825239 31.9785 0 29.9442 0C26.6151 0 25.4074 2.17046 25.4074 3.62923C25.4074 4.33338 25.0995 5.58771 24.7575 6.23886L16.8361 22.0645C16.6178 22.2942 16.3287 22.4848 16.1053 22.5895C15.6068 21.5535 14.3285 20.8707 12.7031 20.8707H3.62941C1.62792 20.8707 0 22.4985 0 24.4999V45.3708C0 47.3709 1.62792 49 3.62941 49H9.98104C11.2165 49 13.0072 48.6555 14.1581 48.1962L15.3229 47.7293C15.7646 47.5514 16.7175 47.5929 17.1453 47.8062L17.5289 47.9981C18.6722 48.5672 20.4995 49 21.7779 49H29.0381H31.7601H39.0191C42.0226 49 44.4632 46.7627 44.4632 44.0092C44.4632 43.3379 44.3194 42.7006 44.0758 42.1151C45.912 41.2406 47.1865 39.3704 47.1865 37.2024C47.1865 36.2307 46.9278 35.3197 46.4785 34.531C47.9916 33.5618 49 31.8721 49 29.9439C49 28.5482 48.4688 27.2799 47.6031 26.3145C48.4688 25.3492 49 24.0797 49 22.6853Z" fill="#004877"/>
</svg>
