<svg width="78" height="74" viewBox="0 0 78 74" fill="none" xmlns="http://www.w3.org/2000/svg">
<path fill-rule="evenodd" clip-rule="evenodd" d="M68.2819 67.4426H70.4967C70.8583 67.4426 71.3555 67.4426 71.5815 67.7093C71.7623 67.9316 71.7171 68.3762 71.6719 68.6874C71.5815 69.0431 71.3555 69.3543 71.1295 69.5321C70.9035 69.6655 70.5871 69.7544 70.3159 69.7544H68.9147C68.7791 69.7544 68.3271 69.7544 68.1463 69.621C67.8298 69.3987 67.9202 68.9986 68.0107 68.6429L68.2819 67.4426ZM69.0955 64.0638L69.3215 63.0412C69.3667 62.9079 69.4571 62.4633 69.7735 62.241C69.8639 62.1521 70.1351 62.0187 71.0391 62.0187H77.0508L78 58.1953H69.9091C69.0051 58.1953 67.7846 58.2842 66.5642 59.0845C65.1178 60.0181 64.6658 61.3518 64.485 62.241L62.8126 69.2653C62.5414 70.3768 62.3154 71.755 63.2194 72.6886C63.581 73.0887 64.3494 73.5778 65.6602 73.5778H71.5363C73.3443 73.5778 74.6099 72.9553 75.4236 71.9773C76.2824 70.9103 76.7344 69.132 76.9152 68.4206C77.1412 67.487 77.5028 65.7532 76.5988 64.8196C75.9208 64.1082 74.7908 64.0638 73.9319 64.0638H69.0955ZM47.0827 73.5778L47.9868 69.7544H54.1792C55.5805 69.7544 55.9873 69.7544 56.3489 69.5765C56.9365 69.3543 57.0269 68.9986 57.1625 68.5985C57.2529 68.1983 57.2981 67.7982 56.8461 67.5759C56.5749 67.4426 56.1681 67.487 55.7161 67.487H50.8344L51.648 64.1082H56.2133C56.6653 64.1082 57.2077 64.1082 57.6145 63.797C57.9309 63.5747 58.0665 63.2191 58.1117 62.9968C58.2021 62.73 58.2473 62.4188 57.9761 62.1965C57.7049 61.9298 57.2077 61.9298 56.7557 61.9298H50.0208L50.8796 58.2843H60.4621C61.4566 58.2843 62.677 58.3287 63.2646 59.5291C63.7166 60.3293 63.581 61.3518 63.355 62.241C63.1742 63.0412 62.8578 64.0638 62.0442 64.7751C61.547 65.2197 60.7785 65.5753 60.0101 65.6643V65.7087C60.6429 65.7087 61.4114 65.931 61.8634 66.3756C62.6318 67.1314 62.3606 68.3762 62.1346 69.2209C61.8182 70.6435 61.4114 71.7105 60.1457 72.6886C59.0157 73.5333 58.0213 73.6667 56.9817 73.6667H47.0827V73.5778ZM32.3021 73.5778H42.2011C43.2407 73.5778 44.2351 73.4444 45.3651 72.5997C46.6759 71.6216 47.0375 70.5546 47.3539 69.132C47.5347 68.2873 47.8511 67.0424 47.0827 66.2867C46.6307 65.8421 45.8623 65.6198 45.2295 65.6198V65.5753C45.9979 65.4864 46.7211 65.1752 47.2635 64.6862C48.0772 63.9749 48.3936 62.9523 48.5744 62.1521C48.8004 61.2629 48.936 60.2404 48.484 59.4402C47.8964 58.2398 46.6759 58.1953 45.6815 58.1953H36.1442L35.2854 61.8409H42.0203C42.4723 61.8409 42.9695 61.8409 43.2407 62.1076C43.4667 62.3299 43.4215 62.6411 43.3763 62.9079C43.3311 63.1302 43.1955 63.4858 42.8791 63.7081C42.4271 64.0638 41.8847 64.0193 41.4779 64.0193H36.8222L36.0086 67.3981H40.8902C41.3423 67.3981 41.7491 67.3537 42.0203 67.487C42.4723 67.7093 42.4271 68.1094 42.3367 68.5096C42.2463 68.9097 42.1107 69.2653 41.5231 69.4876C41.1615 69.621 40.7546 69.6655 39.3534 69.6655H33.2061L32.3021 73.5778ZM26.1548 73.5778L28.5957 63.308C28.6409 63.0412 28.7765 62.5077 28.6409 62.2855C28.5957 62.1965 28.4149 62.0187 27.9629 62.0187H26.5164L27.4205 58.1953H32.3473C33.1157 58.1953 33.6581 58.4176 33.9745 58.7733C34.2909 59.1289 34.4718 59.8403 34.2458 60.685L31.1721 73.5333H26.1548V73.5778ZM24.7536 64.4639H22.1772C20.8212 64.4639 18.9227 65.5753 18.6063 67.0869L18.3803 68.3762H23.8044L24.7536 64.4639ZM0.0740459 71.1326C-0.0615561 71.7105 -0.0163554 72.4218 0.254849 72.8664C0.752056 73.6222 1.70127 73.5778 2.42448 73.5778H10.6058C11.9618 73.5778 13.0918 73.5778 14.3575 72.5108C15.5779 71.4882 15.8491 70.2879 16.0751 69.2653C16.3011 68.3317 16.5271 67.3537 15.8943 66.5534C15.5779 66.1977 15.0355 65.8421 14.2219 65.7532V65.6643C14.8999 65.6198 15.3971 65.3975 15.9847 64.9085C16.8887 64.1527 17.1599 63.3524 17.3407 62.5077C17.5667 61.4852 17.7927 60.107 17.1599 59.2179C16.4819 58.2842 15.1259 58.1953 13.9959 58.1953H5.45293C4.77492 58.1953 4.0065 58.5065 3.5093 58.9511C3.10249 59.3068 2.74089 59.9292 2.56008 60.685L0.0740459 71.1326ZM6.80895 64.1082L7.12535 62.8634C7.17055 62.6411 7.21575 62.4188 7.48696 62.1965C7.71296 62.0187 7.93896 62.0187 8.16497 62.0187H11.0578C11.3742 62.0187 11.8714 62.0187 12.1426 62.3299C12.233 62.4633 12.2782 62.6856 12.233 62.9968C12.1878 63.1746 12.0522 63.4858 11.9166 63.7081C11.555 64.1082 11.0578 64.1082 10.6058 64.1082H6.80895ZM5.99533 67.4426H9.92779C10.3346 67.4426 10.877 67.4426 11.103 67.8871C11.1934 68.065 11.1934 68.2873 11.1482 68.554C11.0578 68.8652 10.8318 69.2653 10.651 69.4432C10.5154 69.5321 10.199 69.7544 9.24978 69.7544H6.58294C6.35694 69.7544 5.85973 69.7544 5.67893 69.5321C5.58853 69.3987 5.58853 69.132 5.72413 68.5985L5.99533 67.4426ZM52.3712 34.4548L66.1122 31.3872V31.3428L66.519 30.098L66.8354 28.8531L66.8806 28.6309L50.6988 34.4548H50.2016L67.423 24.4963L67.4682 23.8739V22.629L67.3778 21.3842L67.2422 20.1839L67.0162 18.9835L66.745 17.8276L66.3834 16.7162L65.9766 15.6492L65.5246 14.6266L64.9822 13.6486L64.3946 12.7149L63.7618 11.8258L63.0838 10.9811L62.3606 10.1808L61.5922 9.46952L60.7785 8.80266L59.9197 8.18025L59.0157 7.60229L58.0665 7.0688L57.0721 6.57976L56.0777 6.13518L55.0381 5.77952L53.9532 5.46832L52.8232 5.20157L51.6932 4.97928L50.518 4.80145L49.3428 4.71253L48.1224 4.66808H46.9019L45.6363 4.75699L44.2803 4.84591L42.9695 5.02374L41.6587 5.29048L40.3478 5.60169L38.9918 6.00181L38.7658 6.09073H24.8892C30.5393 2.26735 37.2742 0 44.2351 0C61.2757 0 73.5703 13.5596 71.5363 30.1424C70.2707 40.5456 63.6714 49.7928 54.7216 55.1722H42.5175V46.1917L37.3646 42.0127L33.0253 55.1722C28.7765 55.1722 24.6632 55.1722 20.3691 55.1722C12.7302 49.7928 8.34577 40.59 9.61139 30.1424C10.199 25.1631 12.0522 20.4506 14.7643 16.316H19.8719L18.7871 17.9165V21.4287L17.8831 22.7624L17.2051 23.9628L16.5723 25.2076L15.9847 26.4524L15.4875 27.6972L15.0355 28.9421L14.6287 30.1869L14.3123 31.4317L14.0411 32.6765L13.8602 33.9213L13.7246 35.1662V36.4554V37.7003L13.815 38.9451L13.9507 40.1454L14.1767 41.3458L14.4479 42.5017L14.8095 43.6132L15.2163 44.6801L15.6683 45.7027L16.2107 46.6807L16.7983 47.6144L17.4311 48.5035L18.1091 49.3482L18.8323 50.1485L19.6007 50.8598L20.4143 51.5267L21.2732 52.1491L22.1772 52.727L23.1264 53.2605L24.1208 53.7495L24.5728 53.9274L29.3641 40.101L29.0929 39.0785L31.2173 32.9433L27.33 26.4969L20.6404 21.4287V18.3166L23.9852 13.4707L23.1716 12.8483L24.7536 11.3812L24.8892 11.0255H20.1883V14.1821H14.8095V7.15771L18.6063 6.40193L20.1883 7.15771V9.29169H25.296L26.1096 7.78012L28.8217 7.38L31.1269 8.89157L31.0817 9.24723H31.7145L33.5225 7.33555L37.681 7.64675L43.3763 10.7143L45.0939 13.0262L42.1559 22.8069L42.9695 23.7405L40.845 34.6327L42.7435 36.411H56.7105V44.4579L54.4504 46.414V47.5699L54.9025 47.2142L55.9873 46.2806L57.0721 45.3026L58.1117 44.28L59.1061 43.213L60.0553 42.1016L60.9593 40.9901L61.8182 39.8342L62.5866 38.6783L63.3098 37.478L63.9878 36.2776L64.6206 35.1217L64.937 34.4993L52.3712 34.4548ZM45.9075 43.791V52.0602L49.2072 45.9694L53.8628 43.791H45.9075ZM30.5845 22.3178L26.3808 18.8501L22.4032 18.8946L22.4484 20.3617L30.2681 25.6522L32.2569 29.7423L32.4829 28.2307L30.5845 22.3178ZM39.8958 20.0505L37.5454 18.3611L35.0594 19.4725L35.4662 21.7843L36.325 21.9622L38.0878 22.6735L38.7658 22.0511L38.811 21.2953L38.4042 21.073L37.6358 22.4068L36.8222 21.9622H36.8674L37.9522 20.8952L36.8674 20.4062L37.003 19.4725L38.4494 20.7618L39.2178 20.9396L39.3082 20.8952L39.8958 20.0505ZM37.3646 22.9847L36.5058 22.629L35.6018 22.4957L36.2346 23.1181L36.551 22.9847L36.9578 23.1625L36.9126 23.4293L37.3646 22.9847ZM40.7546 22.0956L44.0091 13.204L43.3311 12.4037L40.0314 13.5152L39.263 15.9159L41.1614 17.6942L40.9354 20.4951L39.8958 21.4287L40.7546 22.0956ZM26.2452 17.8276L26.5164 15.827L25.1604 15.249L23.3976 17.7831L26.2452 17.8276ZM31.9857 21.2509L32.9801 21.2953L33.5225 19.6948L31.9857 21.2509ZM32.2117 22.4068L34.291 26.9415L41.2971 24.2295L39.1274 22.4512L36.8674 24.7186L34.969 24.1406L33.3869 22.3178L32.2117 22.4068ZM39.8958 12.3593L41.6135 11.7813L40.3026 11.07L38.811 11.2923L39.8958 12.3593ZM41.9299 38.5894V39.7453L45.9075 42.4128H53.8628V38.5894H41.9299ZM32.5281 12.4927L31.5789 11.0255H30.3133L29.5449 12.0925L28.0985 15.5158L27.1944 15.1601L27.0588 17.4719L31.1269 20.4506L33.3417 18.0054V16.8495L35.9182 14.8045L38.1782 15.249L39.1726 12.5371L37.6358 11.07L37.003 12.2704L32.5281 12.4927ZM48.8456 34.4548H49.2524L63.8522 23.0736V20.1394H61.0045L48.8456 34.4548Z" fill="white"/>
</svg>
