<svg width="60" height="48" viewBox="0 0 60 48" fill="none" xmlns="http://www.w3.org/2000/svg">
<path fill-rule="evenodd" clip-rule="evenodd" d="M46.4479 24.2561H47.136L50.2325 10.8378L38.8786 14.2784L43.0073 36.9863H45.0716V25.4603V24.2561H46.4479ZM1.54825 9.4616L10.8378 6.53709L12.042 6.19301L12.3861 7.39723L13.5903 11.5259L49.7164 0.516066L51.6087 0L52.1248 1.72029L54.0171 7.74131L54.5332 9.63359L52.985 10.1497L49.5444 24.4281H53.329H54.5332V25.6323V37.1582H57.8018H59.35V38.7066V45.9317V47.48H57.8018H9.11752H7.56927V45.9317V38.7066V37.1582H8.42942V26.1484L3.44058 20.8155L3.26854 20.6435V20.2994L0.344027 11.0099L0 9.80563L1.54825 9.4616ZM16.5148 21.1596L18.0631 26.4925L18.4071 27.6966L17.2029 28.0407L12.5581 29.4169L11.87 29.589L11.3539 29.0729L11.1819 28.9009V37.1582H23.568L27.5247 17.891L16.5148 21.1596ZM10.3217 9.28956L3.44058 11.3539L5.84898 19.2672C8.08536 21.8477 10.4938 24.2561 12.7301 26.8365L15.3106 25.9764L10.3217 9.28956ZM49.0283 4.64475L49.7164 7.05315L16.8588 17.0309L16.1707 14.6225L49.0283 4.64475ZM26.1484 36.9863L30.1051 17.5469L36.6422 15.6546L40.5989 36.9863H26.1484ZM56.4255 40.0828H10.8378V44.2115H56.4255V40.0828ZM52.1248 26.6645V36.9863H47.652V26.6645H52.1248Z" fill="#004877"/>
</svg>
