<svg width="64" height="45" viewBox="0 0 64 45" fill="none" xmlns="http://www.w3.org/2000/svg">
<path d="M50.6029 29.2197H50.8317V28.9909V26.8994V26.7543L50.7005 26.6924L47.7208 25.2869L47.4789 24.2709L49.2827 21.5651L49.3612 21.4475L49.291 21.3247L47.1995 17.6645L47.1269 17.5375L46.9811 17.55L43.7121 17.8318L43.1134 17.2791L43.3944 13.9629L43.4066 13.8185L43.2813 13.7457L39.6792 11.6542L39.5553 11.5822L39.4365 11.6623L36.678 13.52L35.6602 13.2292L34.252 10.2439L34.1901 10.1127H34.045H29.8039H29.6588L29.5969 10.2439L28.1888 13.2292L27.1722 13.5196L24.4724 11.6635L24.354 11.5821L24.2292 11.6534L20.569 13.7449L20.4422 13.8174L20.4545 13.9629L20.7361 17.2847L20.1894 17.8314L16.9259 17.55L16.782 17.5376L16.7089 17.6621L14.5593 21.3223L14.4855 21.4479L14.568 21.5679L16.4242 24.2677L16.1337 25.2842L13.1485 26.6924L13.0172 26.7543V26.8994V28.9909V29.2197H13.2461H15.57H15.7988V28.9909V28.4974L18.3976 27.2809L18.4941 27.2358L18.5216 27.1329L19.3931 23.8794L19.4201 23.7787L19.3618 23.6923L17.757 21.3127L18.2522 20.4574L21.1298 20.6787L21.2348 20.6868L21.3092 20.6124L23.5169 18.4047L23.5913 18.3302L23.5832 18.2253L23.3619 15.3477L24.2173 14.8525L26.5968 16.4573L26.6832 16.5156L26.7839 16.4886L30.0374 15.6171L30.138 15.5902L30.1838 15.4966L31.4572 12.8943H32.447L33.6635 15.4931L33.7086 15.5895L33.8115 15.6171L37.065 16.4886L37.1657 16.5156L37.2522 16.4573L39.6316 14.8525L40.487 15.3477L40.2657 18.2253L40.2576 18.3302L40.332 18.4047L42.5397 20.6124L42.6142 20.6868L42.7191 20.6787L45.5967 20.4574L46.0919 21.3127L44.4872 23.6922L44.4289 23.7787L44.4558 23.8794L45.3273 27.1329L45.3549 27.2358L45.4513 27.2809L48.0501 28.4974V28.9909V29.2197H48.2789H50.6029Z" fill="#004877" stroke="#004877" stroke-width="0.457702"/>
<path d="M21.1501 29.0489V29.2777H21.3789H23.7028H23.9317V29.0489C23.9317 24.6436 27.5474 21.0279 31.9526 21.0279C36.3579 21.0279 39.9737 24.6436 39.9737 29.0489V29.2777H40.2025H42.5264H42.7553V29.0489C42.7553 23.0538 37.888 18.2462 31.9526 18.2462C26.0165 18.2462 21.1501 23.1127 21.1501 29.0489Z" fill="#004877" stroke="#004877" stroke-width="0.457702"/>
<path d="M60.3049 28.9907V2.49819C60.3049 1.10385 59.201 0 57.8066 0H6.09975C4.70541 0 3.60156 1.10385 3.60156 2.49819V28.9907H5.92547V2.49819C5.92547 2.382 5.98356 2.32391 6.09975 2.32391H57.8066C57.9228 2.32391 57.981 2.382 57.981 2.49819V28.9907H60.3049Z" fill="#004877"/>
<path d="M0 42.063L6.04217 44.6193H57.7491L63.7912 42.063V35.0332H0V42.063ZM2.3239 37.3571H61.5254V40.4944L57.3424 42.2373H6.56506L2.38202 40.4944V37.3571H2.3239Z" fill="#004877"/>
</svg>
