<svg width="22" height="15" viewBox="0 0 22 15" fill="none" xmlns="http://www.w3.org/2000/svg">
<path d="M20.827 0.00619569C20.7336 -0.00206523 20.6395 -0.00206523 20.5461 0.00619569H1.36311C1.24016 0.00782204 1.11803 0.0236484 1 0.0532486L10.8998 8.5169L20.827 0.00619569Z" fill="white"/>
<path d="M21.8412 0.82373L11.8661 9.35208C11.6093 9.57117 11.262 9.69414 10.9001 9.69414C10.5381 9.69414 10.1908 9.57117 9.93405 9.35208L0.0479575 0.888428C0.0175657 0.984323 0.00145153 1.08314 0 1.18251V12.9457C0 13.2577 0.144361 13.5569 0.401326 13.7775C0.658291 13.9981 1.00681 14.1221 1.37021 14.1221H20.5532C20.9166 14.1221 21.2651 13.9981 21.5221 13.7775C21.7791 13.5569 21.9234 13.2577 21.9234 12.9457V1.18251C21.918 1.05997 21.8902 0.938913 21.8412 0.82373ZM2.30881 12.9457H1.35651V12.1047L6.33724 7.86403L7.30324 8.69333L2.30881 12.9457ZM20.5395 12.9457H19.5804L14.5859 8.69333L15.5519 7.86403L20.5327 12.1047L20.5395 12.9457Z" fill="white"/>
</svg>
