<svg width="32" height="32" viewBox="0 0 32 32" fill="none" xmlns="http://www.w3.org/2000/svg">
<path d="M22.8874 20.0893H21.4446L20.9332 19.5962C22.723 17.5142 23.8005 14.8113 23.8005 11.871C23.8005 5.31454 18.486 0 11.9296 0C5.37313 0 0.0585938 5.31454 0.0585938 11.871C0.0585938 18.4274 5.37313 23.7419 11.9296 23.7419C14.8699 23.7419 17.5728 22.6644 19.6548 20.8746L20.1479 21.386V22.8288L29.2794 31.942L32.0006 29.2208L22.8874 20.0893ZM11.9296 20.0893C7.38207 20.0893 3.7112 16.4185 3.7112 11.871C3.7112 7.32347 7.38207 3.6526 11.9296 3.6526C16.4771 3.6526 20.1479 7.32347 20.1479 11.871C20.1479 16.4185 16.4771 20.0893 11.9296 20.0893Z" fill="#004877"/>
</svg>
