<svg width="61" height="37" viewBox="0 0 61 37" fill="none" xmlns="http://www.w3.org/2000/svg">
<path fill-rule="evenodd" clip-rule="evenodd" d="M30.719 0C39.0523 0 46.7321 3.43137 52.1242 8.82353C57.353 14.0523 60.6209 21.0784 60.9477 28.7582V30.2288V31.5359H54.2484V28.7582H57.5164C57.353 24.8366 56.3726 21.2418 54.5752 17.9739L51.634 19.6078L50.1634 17.1569L53.1046 15.5229C52.1242 13.8889 50.817 12.4183 49.5098 11.1111C48.2026 9.80393 46.732 8.66013 45.098 7.51634L43.4641 10.4575L41.0131 8.98693L42.6471 6.04576C39.3791 4.41177 35.7843 3.43137 31.8627 3.10458V6.37255H29.085V3.10458C25.1634 3.26798 21.5686 4.24837 18.3007 6.04576L19.9347 8.98693L17.4837 10.4575L15.8497 7.51634C14.2157 8.49673 12.7451 9.80393 11.4379 11.1111C10.1307 12.4183 8.98696 13.8889 7.84317 15.5229L10.7843 17.1569L9.31374 19.6078L6.37259 17.9739C4.7386 21.2418 3.75818 24.8366 3.43138 28.7582H6.69936V31.5359H0V30.2288V28.7582C0.326797 20.915 3.59481 13.8889 8.82357 8.82353C14.7059 3.43137 22.2222 0 30.719 0ZM27.1242 24.8366C26.7974 25.1634 26.3072 25.3268 25.9804 25.6536C24.8366 26.7974 24.0196 28.4314 24.0196 30.2288C24.0196 32.0261 24.6732 33.6601 25.9804 34.8039C27.1242 35.9477 28.7582 36.7647 30.5556 36.7647C32.353 36.7647 33.9869 36.1111 35.1307 34.8039C36.2745 33.6601 37.0915 32.0261 37.0915 30.2288C37.0915 28.4314 36.4379 26.7974 35.1307 25.6536C33.9869 24.5098 32.353 23.6928 30.5556 23.6928C30.0654 23.6928 29.5752 23.6928 29.085 23.8562L23.0392 9.47713L21.0785 10.2941L27.1242 24.8366ZM33.0065 27.9412C32.353 27.2876 31.536 26.9608 30.719 26.9608C29.7386 26.9608 29.085 27.2876 28.4314 27.9412C27.7778 28.5948 27.451 29.4118 27.451 30.2288C27.451 31.0457 27.7778 31.8627 28.4314 32.5163C29.085 33.1699 29.902 33.4967 30.719 33.4967C31.536 33.4967 32.353 33.1699 33.0065 32.5163C33.6601 31.8627 33.987 31.0457 33.987 30.2288C33.987 29.4118 33.4967 28.5948 33.0065 27.9412Z" fill="#004877"/>
</svg>
