<svg width="51" height="51" viewBox="0 0 51 51" fill="none" xmlns="http://www.w3.org/2000/svg">
<path d="M25.5 9C16.3966 9 9 16.3966 9 25.5C9 34.6035 16.3966 42 25.5 42C34.6035 42 42 34.6035 42 25.5C42 16.3966 34.6035 9 25.5 9ZM25.5 40.1034C17.4397 40.1034 10.8966 33.5604 10.8966 25.5C10.8966 17.4397 17.4397 10.8966 25.5 10.8966C33.5603 10.8966 40.1034 17.4397 40.1034 25.5C40.1034 33.5604 33.5129 40.1034 25.5 40.1034Z" fill="#004877"/>
<path d="M47.9862 15.3384L48.0389 15.2602L47.9913 15.1788L45.5413 10.9915L45.4932 10.9093L45.3984 10.9179L41.0137 11.3125L39.6875 9.98627L40.0821 5.60162L40.0907 5.50679L40.0085 5.45871L35.8212 3.00871L35.7398 2.96106L35.6616 3.01383L32.0218 5.46957L29.9269 4.883L28.0408 0.935335L28 0.85H27.9055H23.0946H23L22.9592 0.935335L21.0731 4.883L18.9782 5.46957L15.3384 3.01383L15.2602 2.96106L15.1788 3.00871L10.9915 5.45871L10.9093 5.50679L10.9179 5.60162L11.3125 9.98628L9.98628 11.3125L5.60163 10.9179L5.5068 10.9093L5.45872 10.9915L3.00872 15.1788L2.96107 15.2602L3.01384 15.3384L5.46957 18.9782L4.883 21.0731L0.935335 22.9592L0.85 23V23.0946V27.9055V28L0.935335 28.0408L4.883 29.9269L5.46957 32.0218L3.01384 35.6616L2.96107 35.7398L3.00872 35.8212L5.45872 40.0085L5.5068 40.0907L5.60163 40.0821L9.98628 39.6875L11.3125 41.0137L10.9179 45.3984L10.9093 45.4932L10.9915 45.5413L15.1788 47.9913L15.2602 48.0389L15.3384 47.9862L18.9782 45.5304L21.0731 46.117L22.9592 50.0647L23 50.15H23.0946H27.9055H28L28.0408 50.0647L29.9269 46.117L32.0218 45.5304L35.6616 47.9862L35.7398 48.0389L35.8212 47.9913L40.0085 45.5413L40.0907 45.4932L40.0821 45.3984L39.6875 41.0137L41.0137 39.6875L45.3984 40.0821L45.4932 40.0907L45.5413 40.0085L47.9913 35.8212L48.0389 35.7398L47.9862 35.6616L45.5304 32.0218L46.117 29.9269L50.0647 28.0408L50.15 28V27.9055V23.0946V23L50.0647 22.9592L46.117 21.0731L45.5304 18.9782L47.9862 15.3384ZM44.4119 28.4828L44.3494 28.5125L44.3315 28.5794L43.3069 32.4103L43.2893 32.4764L43.3275 32.533L45.5913 35.8851L44.3944 37.9488L40.3465 37.6006L40.2769 37.5946L40.2276 37.6439L37.6439 40.2276L37.5946 40.2769L37.6006 40.3465L37.9488 44.3944L35.8851 45.5913L32.533 43.3275L32.4764 43.2892L32.4103 43.3069L28.5794 44.3315L28.5125 44.3494L28.4828 44.4119L26.7417 48.0682H24.3474L22.6063 44.4119L22.5766 44.3494L22.5097 44.3315L18.6788 43.3069L18.6127 43.2892L18.5561 43.3275L15.2039 45.5913L13.1403 44.3944L13.4885 40.3465L13.4945 40.2769L13.4452 40.2276L10.8615 37.6439L10.8122 37.5946L10.7426 37.6006L6.69472 37.9488L5.49782 35.8851L7.76158 32.533L7.79984 32.4764L7.78218 32.4103L6.75763 28.5794L6.73974 28.5125L6.67722 28.4828L3.02091 26.7417V24.3474L6.67722 22.6063L6.73974 22.5766L6.75763 22.5097L7.78218 18.6788L7.79984 18.6127L7.76158 18.5561L5.49782 15.2039L6.69472 13.1403L10.7426 13.4885L10.8122 13.4945L10.8615 13.4452L13.4452 10.8615L13.4945 10.8122L13.4885 10.7426L13.1403 6.69472L15.2039 5.49783L18.5561 7.76158L18.6127 7.79984L18.6788 7.78218L22.5097 6.75764L22.5766 6.73975L22.6063 6.67722L24.3474 3.02091H26.7417L28.4828 6.67722L28.5125 6.73975L28.5794 6.75764L32.4103 7.78218L32.4764 7.79984L32.533 7.76158L35.8851 5.49783L37.9488 6.69472L37.6006 10.7426L37.5946 10.8122L37.6439 10.8615L40.2276 13.4452L40.2769 13.4945L40.3465 13.4885L44.3944 13.1403L45.5913 15.2039L43.3275 18.5561L43.2893 18.6127L43.3069 18.6788L44.3315 22.5097L44.3494 22.5766L44.4119 22.6063L48.0682 24.3474V26.7417L44.4119 28.4828Z" fill="#004877" stroke="#333333" stroke-width="0.3"/>
<path d="M30.0435 16.1898L28.7072 15.4771V21.9807L27.8608 23.2725H23.139L22.2926 21.9807V15.4771L20.9563 16.1898C17.8826 17.838 16.0117 21.0452 16.0117 24.5198C16.0117 27.9943 17.9272 31.2016 20.9563 32.8498V35.3889H22.7381V31.7361L22.2035 31.5134C19.4863 30.2661 17.749 27.5043 17.749 24.5643C17.749 22.2925 18.7735 20.1543 20.4663 18.6843V22.5598L22.159 25.0989H28.7963L30.489 22.5598V18.6843C32.1817 20.1098 33.2063 22.248 33.2063 24.5643C33.2063 27.5489 31.469 30.2661 28.7517 31.5134L28.2172 31.7361V35.3889H29.999V32.8498C33.0281 31.2016 34.9435 27.9943 34.9435 24.5198C34.9881 21.0452 33.1172 17.8825 30.0435 16.1898Z" fill="#004877"/>
</svg>
