<svg width="55" height="49" viewBox="0 0 55 49" fill="none" xmlns="http://www.w3.org/2000/svg">
<path d="M19.7109 0V35.398L26.7031 42.8272L33.6953 35.398V0" stroke="#004877" stroke-width="2.80437"/>
<path d="M19.272 3.05908L18.5225 3.80858C18.2614 4.06967 18.3608 4.51368 18.7084 4.63843L34.4705 10.2966C34.7545 10.3986 34.8857 10.7258 34.7507 10.9956L34.1304 12.2363" stroke="#004877" stroke-width="2.80437"/>
<path d="M19.272 10.4885L18.5225 11.238C18.2614 11.4991 18.3608 11.9431 18.7084 12.0679L34.4705 17.7261C34.7545 17.828 34.8857 18.1552 34.7507 18.4251L34.1304 19.6658" stroke="#004877" stroke-width="2.80437"/>
<path d="M19.272 17.9177L18.5225 18.6672C18.2614 18.9283 18.3608 19.3723 18.7084 19.4971L34.4705 25.1553C34.7545 25.2572 34.8857 25.5844 34.7507 25.8543L34.1304 27.095" stroke="#004877" stroke-width="2.80437"/>
<path d="M19.272 25.3469L18.5225 26.0964C18.2614 26.3575 18.3608 26.8015 18.7084 26.9263L34.4705 32.5845C34.7545 32.6864 34.8857 33.0136 34.7507 33.2835L34.1304 34.5242" stroke="#004877" stroke-width="2.80437"/>
<path d="M0 23.5989H11.845L14.0301 25.7839V28.406L16.2151 30.5911V36.7092L24.0813 47.1975H28.8885L37.1917 36.7092L37.6287 30.5911L39.8138 28.406V25.7839L42.4359 23.5989H54.2091" stroke="#004877" stroke-width="1.86958"/>
</svg>
