<svg width="33" height="56" viewBox="0 0 33 56" fill="none" xmlns="http://www.w3.org/2000/svg">
<path fill-rule="evenodd" clip-rule="evenodd" d="M10.761 16.6569H23.2803H24.4057V17.7823V23.6902V24.8156H23.2803H21.4517L24.4057 34.2402L30.3137 52.9489L31.017 55.0589H28.7663H16.9503H5.13433H2.88366L3.58699 52.9489L9.49499 34.2402L12.449 24.8156H10.6203H9.49499V23.6902V17.7823V16.6569H10.761ZM13.1523 11.8743C12.871 10.4676 12.449 9.06095 11.7457 8.07628C10.6203 6.38828 8.93233 5.40359 6.119 5.54426C4.853 5.54426 3.86832 6.10695 3.16499 6.66962C2.74299 7.09162 2.32099 7.65428 2.18032 8.07628C2.03966 8.49828 2.03966 9.06095 2.18032 9.48295C2.32099 10.0456 2.743 10.4676 3.30566 10.7489C3.72766 11.0303 4.14966 11.1709 4.71233 11.3116C5.275 11.4523 5.97833 11.4523 6.541 11.3116C7.385 11.1709 8.51034 11.0302 9.77634 11.0302C11.0423 11.0302 12.1677 11.1709 12.871 11.5929C13.0117 11.7336 13.0117 11.7336 13.1523 11.8743ZM13.293 6.95092C14.6997 9.06092 15.2623 12.0149 15.403 14.9689L13.4337 15.2502C13.4337 15.2502 13.293 14.2656 11.7457 13.4216C11.3237 13.1403 10.6203 13.1402 9.63566 13.1402C8.651 13.1402 7.52565 13.2809 6.68165 13.4216C5.83765 13.5623 4.99366 13.5623 4.29033 13.4216C3.44633 13.2809 2.74299 12.9996 2.18032 12.7183C1.19566 12.1556 0.492333 11.3116 0.211 10.3269C-0.0703333 9.48291 -0.0703333 8.49826 0.211 7.65426C0.492333 6.81026 0.91432 5.96628 1.75832 5.26295C2.74299 4.27828 4.29032 3.7156 5.97832 3.57493C9.49499 3.2936 11.8863 4.70026 13.293 6.95092ZM19.0603 14.4063C19.0603 14.4063 22.4363 9.48292 25.531 8.35759C26.797 7.93559 28.2037 7.79495 29.4697 8.07628C30.173 8.21695 30.8763 8.49825 31.439 8.92025C32.0017 9.34225 32.4237 9.90492 32.705 10.4676C32.8457 11.0303 32.9863 11.5929 32.8457 12.1556C32.5643 13.7029 30.4543 13.8436 27.7817 13.9843C25.2497 14.1249 22.0143 14.4063 20.467 15.8129L19.0603 14.4063ZM26.2343 10.0456C25.2497 10.4676 24.1243 11.4522 23.1397 12.4369C24.687 12.1556 26.2343 12.0149 27.641 11.8743C29.4697 11.7336 30.8763 11.5929 30.8763 11.5929C30.8763 11.3116 30.8763 11.1709 30.8763 11.0302C30.7357 10.7489 30.595 10.6082 30.3137 10.3269C30.0323 10.0456 29.6103 9.90493 29.0477 9.90493C28.2037 9.6236 27.0783 9.76427 26.2343 10.0456ZM16.8097 12.7183L18.6383 13.2809C19.7637 10.6083 21.8737 9.06092 23.5617 7.65426C25.2497 6.38826 26.6563 5.26293 26.9377 3.57493C27.0783 2.73093 26.9377 2.0276 26.5157 1.46493C26.0937 0.902264 25.531 0.480273 24.9683 0.19894C24.4057 0.0582728 23.7023 -0.0824024 22.999 0.0582643C21.8737 0.198931 20.7483 0.620931 20.045 1.46493C18.357 3.57493 16.8097 12.7183 16.8097 12.7183ZM21.5923 2.8716C20.889 3.7156 20.1857 6.10693 19.623 8.49826C20.6077 7.5136 21.5923 6.81025 22.4363 6.10691C23.843 5.12225 24.9683 4.27825 25.109 3.29358C25.109 2.87158 25.109 2.73095 24.9683 2.44962C24.8277 2.30895 24.687 2.16826 24.4057 2.02759C24.1243 1.88692 23.7023 1.88691 23.2803 1.88691C22.7177 2.02758 22.0143 2.30893 21.5923 2.8716ZM20.889 33.9589L15.1217 35.5063L21.733 36.4909L21.311 35.2249L20.889 33.9589ZM22.4363 38.8823L11.3237 43.8056L24.4057 45.2123L22.4363 38.8823ZM25.2497 47.8849L16.1063 51.8236H16.9503H26.5157L25.2497 47.8849ZM11.8863 51.683L23.7023 46.7596L9.49499 45.2123L7.38499 51.683H11.8863ZM10.1983 42.5396L20.6077 37.8976L12.027 36.6316L10.1983 42.5396ZM12.871 34.3809L20.467 32.4116L18.4977 26.2223H15.5437L12.871 34.3809ZM22.155 18.9076H11.7457V22.5649H22.155V18.9076Z" fill="#004877"/>
</svg>
