<svg width="72" height="72" viewBox="0 0 72 72" fill="none" xmlns="http://www.w3.org/2000/svg">
<path d="M64.0023 66.6689H7.99964C6.5273 66.6689 5.33301 65.4729 5.33301 64.0025V18.6689H66.667V64.0025C66.6688 65.4748 65.4709 66.6689 64.0023 66.6689ZM7.99964 5.33673H64.0023C65.4709 5.33673 66.6688 6.53272 66.6688 8.00317V16.0025H5.33494V8.00317C5.33494 6.53272 6.5273 5.33673 7.99964 5.33673ZM64.0023 0H7.99964C3.58818 0 0 3.58979 0 8.00113V64.0025C0 68.412 3.59003 72 7.99964 72H64.0023C68.4137 72 72 68.4101 72 64.0025V8.00113C72.0019 3.58979 68.4137 0 64.0023 0Z" fill="white"/>
<path d="M9.16333 13.2922H21.8501C22.6284 13.2922 23.2616 12.3001 23.2616 11.0768C23.2616 9.85356 22.6303 8.86142 21.8501 8.86142H9.16333C8.38706 8.86142 7.75391 9.85356 7.75391 11.0768C7.75391 12.3001 8.3851 13.2922 9.16333 13.2922Z" fill="white"/>
<path d="M55.6066 13.2922H59.5943C60.3264 13.2922 60.9235 12.3001 60.9235 11.0768C60.9235 9.85356 60.3282 8.86142 59.5943 8.86142H55.6066C54.8726 8.86142 54.2773 9.85356 54.2773 11.0768C54.2773 12.3001 54.8708 13.2922 55.6066 13.2922Z" fill="white"/>
<path d="M60.6846 40.0667H56.1803L51.1541 28.7319C50.9372 28.2463 50.4546 27.9333 49.9234 27.9333C49.9215 27.9333 49.9196 27.9333 49.9159 27.9333C49.379 27.9352 48.8983 28.2594 48.6888 28.7507L41.7603 44.9549L40.3686 42.1631C40.1292 41.6869 39.6316 41.3962 39.1078 41.4206C38.5803 41.4412 38.1127 41.773 37.9144 42.2643L34.1117 51.8007L28.3672 27.6239C28.2287 27.0314 27.7107 26.6056 27.1065 26.585C26.5117 26.5793 25.956 26.9525 25.7746 27.5319L19.8038 46.6857L16.0066 41.923C15.7653 41.6249 15.4118 41.4392 15.0283 41.4185C14.6561 41.4054 14.2764 41.5387 14.0052 41.8106L11.7081 44.113H6.88397C6.14324 44.113 5.53906 44.7168 5.53906 45.4612C5.53906 46.2056 6.14137 46.8114 6.88397 46.8114H12.2656C12.6191 46.8114 12.9633 46.6688 13.2158 46.4156L14.845 44.7844L19.2839 50.3495C19.5944 50.7396 20.0957 50.9213 20.5839 50.8332C21.0703 50.7413 21.4705 50.387 21.6183 49.9108L26.8857 33.0183L32.475 56.5634C32.6096 57.1353 33.0997 57.5517 33.6851 57.5948C33.7188 57.5985 33.7506 57.6003 33.7842 57.6003C34.3304 57.6003 34.8281 57.2667 35.032 56.7529L39.2986 46.0556L40.6511 48.7652C40.8867 49.2339 41.3712 49.5283 41.8931 49.5077C42.415 49.4927 42.8826 49.1739 43.0921 48.6901L49.9458 32.6546L54.0741 41.966C54.293 42.4517 54.7755 42.7667 55.3049 42.7667H60.6846C61.4272 42.7667 62.0314 42.163 62.0314 41.4167C62.0295 40.6704 61.4272 40.0667 60.6846 40.0667Z" fill="white"/>
</svg>
