<svg width="18" height="19" viewBox="0 0 18 19" fill="none" xmlns="http://www.w3.org/2000/svg">
<path d="M3.62 8.22278C5.06 11.21 7.38 13.6483 10.21 15.1789L12.41 12.8567C12.68 12.5717 13.08 12.4767 13.43 12.6033C14.55 12.9939 15.76 13.205 17 13.205C17.55 13.205 18 13.68 18 14.2606V17.9444C18 18.525 17.55 19 17 19C7.61 19 0 10.9672 0 1.05556C0 0.475 0.45 0 1 0H4.5C5.05 0 5.5 0.475 5.5 1.05556C5.5 2.375 5.7 3.64167 6.07 4.82389C6.18 5.19333 6.1 5.605 5.82 5.90056L3.62 8.22278Z" fill="white"/>
</svg>
